<mxfile host="app.diagrams.net" modified="2023-04-08T20:00:48.537Z" agent="Mozilla/5.0 (Macintosh; Intel Mac OS X 10_15_7) AppleWebKit/605.1.15 (KHTML, like Gecko) Version/16.2 Safari/605.1.15" etag="nusp7jdSQkyHYHcxmjfr" version="21.1.2" type="github">
  <diagram name="Page-1" id="kJrWrPGSgi8lEbWL6mTn">
    <mxGraphModel dx="1434" dy="804" grid="1" gridSize="10" guides="1" tooltips="1" connect="1" arrows="1" fold="1" page="1" pageScale="1" pageWidth="1169" pageHeight="827" math="0" shadow="0">
      <root>
        <mxCell id="0" />
        <mxCell id="1" parent="0" />
        <mxCell id="IYlS7my690wejQT6I9Gt-76" value="" style="ellipse;whiteSpace=wrap;html=1;dashed=1;dashPattern=8 8;fillColor=none;" parent="1" vertex="1">
          <mxGeometry x="880" y="242.5" width="150" height="277.5" as="geometry" />
        </mxCell>
        <mxCell id="IYlS7my690wejQT6I9Gt-69" value="" style="whiteSpace=wrap;html=1;fillColor=none;dashed=1;" parent="1" vertex="1">
          <mxGeometry x="840" y="220" width="240" height="410" as="geometry" />
        </mxCell>
        <mxCell id="UyxpPyiTh_7J5SObI_an-33" style="edgeStyle=orthogonalEdgeStyle;rounded=0;orthogonalLoop=1;jettySize=auto;html=1;entryX=0;entryY=0.5;entryDx=0;entryDy=0;" parent="1" source="IYlS7my690wejQT6I9Gt-1" target="IYlS7my690wejQT6I9Gt-67" edge="1">
          <mxGeometry relative="1" as="geometry">
            <Array as="points">
              <mxPoint x="570" y="195" />
              <mxPoint x="570" y="310" />
            </Array>
          </mxGeometry>
        </mxCell>
        <mxCell id="IYlS7my690wejQT6I9Gt-1" value="Perceived Utility&amp;nbsp;" style="ellipse;whiteSpace=wrap;html=1;aspect=fixed;" parent="1" vertex="1">
          <mxGeometry x="420" y="150" width="90" height="90" as="geometry" />
        </mxCell>
        <mxCell id="IYlS7my690wejQT6I9Gt-89" style="edgeStyle=orthogonalEdgeStyle;rounded=0;orthogonalLoop=1;jettySize=auto;html=1;entryX=0;entryY=0.5;entryDx=0;entryDy=0;" parent="1" source="IYlS7my690wejQT6I9Gt-4" target="IYlS7my690wejQT6I9Gt-67" edge="1">
          <mxGeometry relative="1" as="geometry">
            <mxPoint x="570" y="290" as="targetPoint" />
            <Array as="points">
              <mxPoint x="570" y="390" />
              <mxPoint x="570" y="310" />
            </Array>
          </mxGeometry>
        </mxCell>
        <mxCell id="IYlS7my690wejQT6I9Gt-4" value="Personal &lt;br&gt;Norms" style="ellipse;whiteSpace=wrap;html=1;aspect=fixed;" parent="1" vertex="1">
          <mxGeometry x="420" y="345" width="90" height="90" as="geometry" />
        </mxCell>
        <mxCell id="UyxpPyiTh_7J5SObI_an-12" value="" style="edgeStyle=orthogonalEdgeStyle;rounded=0;orthogonalLoop=1;jettySize=auto;html=1;" parent="1" source="IYlS7my690wejQT6I9Gt-6" target="IYlS7my690wejQT6I9Gt-1" edge="1">
          <mxGeometry relative="1" as="geometry" />
        </mxCell>
        <mxCell id="fFxdtxSOvmqtfOTRgSrr-30" style="edgeStyle=orthogonalEdgeStyle;rounded=0;orthogonalLoop=1;jettySize=auto;html=1;exitX=0.5;exitY=0;exitDx=0;exitDy=0;" edge="1" parent="1" source="IYlS7my690wejQT6I9Gt-6" target="IYlS7my690wejQT6I9Gt-67">
          <mxGeometry relative="1" as="geometry" />
        </mxCell>
        <mxCell id="IYlS7my690wejQT6I9Gt-6" value="Perception of Costs" style="ellipse;whiteSpace=wrap;html=1;aspect=fixed;" parent="1" vertex="1">
          <mxGeometry x="230" y="100" width="90" height="90" as="geometry" />
        </mxCell>
        <mxCell id="IYlS7my690wejQT6I9Gt-29" value="PBC-1" style="rounded=0;whiteSpace=wrap;html=1;" parent="1" vertex="1">
          <mxGeometry x="140" y="230" width="50" height="20" as="geometry" />
        </mxCell>
        <mxCell id="IYlS7my690wejQT6I9Gt-33" value="PBC-2" style="rounded=0;whiteSpace=wrap;html=1;" parent="1" vertex="1">
          <mxGeometry x="140" y="250" width="50" height="20" as="geometry" />
        </mxCell>
        <mxCell id="IYlS7my690wejQT6I9Gt-79" value="" style="edgeStyle=orthogonalEdgeStyle;rounded=0;orthogonalLoop=1;jettySize=auto;html=1;" parent="1" source="IYlS7my690wejQT6I9Gt-67" target="IYlS7my690wejQT6I9Gt-68" edge="1">
          <mxGeometry relative="1" as="geometry" />
        </mxCell>
        <mxCell id="IYlS7my690wejQT6I9Gt-67" value="EV Purchase Intention" style="ellipse;whiteSpace=wrap;html=1;aspect=fixed;strokeWidth=3;" parent="1" vertex="1">
          <mxGeometry x="620" y="270" width="80" height="80" as="geometry" />
        </mxCell>
        <mxCell id="IYlS7my690wejQT6I9Gt-82" value="" style="edgeStyle=orthogonalEdgeStyle;rounded=0;orthogonalLoop=1;jettySize=auto;html=1;" parent="1" source="IYlS7my690wejQT6I9Gt-68" target="IYlS7my690wejQT6I9Gt-72" edge="1">
          <mxGeometry relative="1" as="geometry" />
        </mxCell>
        <mxCell id="IYlS7my690wejQT6I9Gt-68" value="EV Purchase Behavior" style="ellipse;whiteSpace=wrap;html=1;aspect=fixed;" parent="1" vertex="1">
          <mxGeometry x="750" y="270" width="80" height="80" as="geometry" />
        </mxCell>
        <mxCell id="IYlS7my690wejQT6I9Gt-70" value="&lt;b&gt;&lt;i&gt;Future Work&lt;/i&gt;&lt;/b&gt;" style="text;strokeColor=none;align=center;fillColor=none;html=1;verticalAlign=middle;whiteSpace=wrap;rounded=0;" parent="1" vertex="1">
          <mxGeometry x="810" y="220" width="150" height="30" as="geometry" />
        </mxCell>
        <mxCell id="IYlS7my690wejQT6I9Gt-80" value="" style="edgeStyle=orthogonalEdgeStyle;rounded=0;orthogonalLoop=1;jettySize=auto;html=1;" parent="1" source="IYlS7my690wejQT6I9Gt-72" target="IYlS7my690wejQT6I9Gt-73" edge="1">
          <mxGeometry relative="1" as="geometry" />
        </mxCell>
        <mxCell id="IYlS7my690wejQT6I9Gt-72" value="Perception of EVs" style="ellipse;whiteSpace=wrap;html=1;aspect=fixed;" parent="1" vertex="1">
          <mxGeometry x="910" y="270" width="80" height="80" as="geometry" />
        </mxCell>
        <mxCell id="IYlS7my690wejQT6I9Gt-81" value="" style="edgeStyle=orthogonalEdgeStyle;rounded=0;orthogonalLoop=1;jettySize=auto;html=1;" parent="1" source="IYlS7my690wejQT6I9Gt-73" target="IYlS7my690wejQT6I9Gt-74" edge="1">
          <mxGeometry relative="1" as="geometry" />
        </mxCell>
        <mxCell id="IYlS7my690wejQT6I9Gt-73" value="EV Re-purchase Intention" style="ellipse;whiteSpace=wrap;html=1;aspect=fixed;" parent="1" vertex="1">
          <mxGeometry x="910" y="400" width="80" height="80" as="geometry" />
        </mxCell>
        <mxCell id="IYlS7my690wejQT6I9Gt-74" value="Actual Usage of EVs" style="ellipse;whiteSpace=wrap;html=1;aspect=fixed;" parent="1" vertex="1">
          <mxGeometry x="910" y="540" width="80" height="80" as="geometry" />
        </mxCell>
        <mxCell id="IYlS7my690wejQT6I9Gt-83" value="&lt;b&gt;&lt;i&gt;Feedback Into Model&lt;/i&gt;&lt;/b&gt;" style="text;strokeColor=none;align=center;fillColor=none;html=1;verticalAlign=middle;whiteSpace=wrap;rounded=0;rotation=-90;" parent="1" vertex="1">
          <mxGeometry x="790" y="390" width="150" height="20" as="geometry" />
        </mxCell>
        <mxCell id="UyxpPyiTh_7J5SObI_an-15" style="edgeStyle=orthogonalEdgeStyle;rounded=0;orthogonalLoop=1;jettySize=auto;html=1;" parent="1" source="IYlS7my690wejQT6I9Gt-5" target="IYlS7my690wejQT6I9Gt-1" edge="1">
          <mxGeometry relative="1" as="geometry" />
        </mxCell>
        <mxCell id="fFxdtxSOvmqtfOTRgSrr-28" style="edgeStyle=orthogonalEdgeStyle;rounded=0;orthogonalLoop=1;jettySize=auto;html=1;" edge="1" parent="1" source="IYlS7my690wejQT6I9Gt-5" target="IYlS7my690wejQT6I9Gt-67">
          <mxGeometry relative="1" as="geometry" />
        </mxCell>
        <mxCell id="IYlS7my690wejQT6I9Gt-5" value="Perceived Behavioral Control" style="ellipse;whiteSpace=wrap;html=1;aspect=fixed;" parent="1" vertex="1">
          <mxGeometry x="230" y="210" width="90" height="90" as="geometry" />
        </mxCell>
        <mxCell id="UyxpPyiTh_7J5SObI_an-20" value="POC-1" style="rounded=0;whiteSpace=wrap;html=1;" parent="1" vertex="1">
          <mxGeometry x="140" y="110" width="50" height="20" as="geometry" />
        </mxCell>
        <mxCell id="UyxpPyiTh_7J5SObI_an-21" value="POC-2" style="rounded=0;whiteSpace=wrap;html=1;" parent="1" vertex="1">
          <mxGeometry x="140" y="130" width="50" height="20" as="geometry" />
        </mxCell>
        <mxCell id="UyxpPyiTh_7J5SObI_an-22" value="POC-3" style="rounded=0;whiteSpace=wrap;html=1;" parent="1" vertex="1">
          <mxGeometry x="140" y="150" width="50" height="20" as="geometry" />
        </mxCell>
        <mxCell id="UyxpPyiTh_7J5SObI_an-23" value="" style="endArrow=classic;html=1;rounded=0;exitX=0;exitY=0.5;exitDx=0;exitDy=0;entryX=1;entryY=0.5;entryDx=0;entryDy=0;" parent="1" source="IYlS7my690wejQT6I9Gt-6" target="UyxpPyiTh_7J5SObI_an-20" edge="1">
          <mxGeometry width="50" height="50" relative="1" as="geometry">
            <mxPoint x="580" y="285" as="sourcePoint" />
            <mxPoint x="630" y="235" as="targetPoint" />
          </mxGeometry>
        </mxCell>
        <mxCell id="UyxpPyiTh_7J5SObI_an-25" value="" style="endArrow=classic;html=1;rounded=0;entryX=1;entryY=0.5;entryDx=0;entryDy=0;exitX=0;exitY=0.5;exitDx=0;exitDy=0;" parent="1" source="IYlS7my690wejQT6I9Gt-6" target="UyxpPyiTh_7J5SObI_an-22" edge="1">
          <mxGeometry width="50" height="50" relative="1" as="geometry">
            <mxPoint x="210" y="155" as="sourcePoint" />
            <mxPoint x="170" y="125" as="targetPoint" />
          </mxGeometry>
        </mxCell>
        <mxCell id="UyxpPyiTh_7J5SObI_an-30" value="" style="endArrow=classic;html=1;rounded=0;exitX=0;exitY=0.5;exitDx=0;exitDy=0;entryX=1;entryY=0.5;entryDx=0;entryDy=0;" parent="1" source="IYlS7my690wejQT6I9Gt-5" target="IYlS7my690wejQT6I9Gt-33" edge="1">
          <mxGeometry width="50" height="50" relative="1" as="geometry">
            <mxPoint x="200" y="240" as="sourcePoint" />
            <mxPoint x="190" y="250" as="targetPoint" />
          </mxGeometry>
        </mxCell>
        <mxCell id="UyxpPyiTh_7J5SObI_an-62" value="" style="endArrow=classic;html=1;rounded=0;exitX=0;exitY=0.5;exitDx=0;exitDy=0;entryX=1;entryY=0.5;entryDx=0;entryDy=0;" parent="1" source="IYlS7my690wejQT6I9Gt-6" target="UyxpPyiTh_7J5SObI_an-21" edge="1">
          <mxGeometry width="50" height="50" relative="1" as="geometry">
            <mxPoint x="240" y="150" as="sourcePoint" />
            <mxPoint x="200" y="140" as="targetPoint" />
          </mxGeometry>
        </mxCell>
        <mxCell id="UyxpPyiTh_7J5SObI_an-66" value="" style="endArrow=classic;html=1;rounded=0;exitX=0.5;exitY=1;exitDx=0;exitDy=0;entryX=0.5;entryY=1;entryDx=0;entryDy=0;" parent="1" source="IYlS7my690wejQT6I9Gt-67" edge="1" target="UyxpPyiTh_7J5SObI_an-69">
          <mxGeometry width="50" height="50" relative="1" as="geometry">
            <mxPoint x="800" y="80" as="sourcePoint" />
            <mxPoint x="658" y="220" as="targetPoint" />
          </mxGeometry>
        </mxCell>
        <mxCell id="UyxpPyiTh_7J5SObI_an-69" value="INT" style="rounded=0;whiteSpace=wrap;html=1;" parent="1" vertex="1">
          <mxGeometry x="632.5" y="380" width="55" height="20" as="geometry" />
        </mxCell>
        <mxCell id="UyxpPyiTh_7J5SObI_an-71" value="" style="endArrow=classic;html=1;rounded=0;exitX=0;exitY=0.5;exitDx=0;exitDy=0;entryX=1;entryY=0.5;entryDx=0;entryDy=0;" parent="1" source="IYlS7my690wejQT6I9Gt-5" target="IYlS7my690wejQT6I9Gt-29" edge="1">
          <mxGeometry width="50" height="50" relative="1" as="geometry">
            <mxPoint x="240" y="260" as="sourcePoint" />
            <mxPoint x="190" y="230" as="targetPoint" />
          </mxGeometry>
        </mxCell>
        <mxCell id="fFxdtxSOvmqtfOTRgSrr-8" style="edgeStyle=orthogonalEdgeStyle;rounded=0;orthogonalLoop=1;jettySize=auto;html=1;entryX=0;entryY=0.5;entryDx=0;entryDy=0;" edge="1" parent="1" source="fFxdtxSOvmqtfOTRgSrr-3" target="IYlS7my690wejQT6I9Gt-4">
          <mxGeometry relative="1" as="geometry" />
        </mxCell>
        <mxCell id="fFxdtxSOvmqtfOTRgSrr-3" value="Environmental Considerations" style="ellipse;whiteSpace=wrap;html=1;aspect=fixed;" vertex="1" parent="1">
          <mxGeometry x="230" y="310" width="90" height="90" as="geometry" />
        </mxCell>
        <mxCell id="fFxdtxSOvmqtfOTRgSrr-4" style="edgeStyle=orthogonalEdgeStyle;rounded=0;orthogonalLoop=1;jettySize=auto;html=1;entryX=0;entryY=0.5;entryDx=0;entryDy=0;" edge="1" parent="1" source="fFxdtxSOvmqtfOTRgSrr-5" target="IYlS7my690wejQT6I9Gt-4">
          <mxGeometry relative="1" as="geometry">
            <mxPoint x="385" y="405" as="targetPoint" />
          </mxGeometry>
        </mxCell>
        <mxCell id="fFxdtxSOvmqtfOTRgSrr-5" value="Risk Perceptions (RP)" style="ellipse;whiteSpace=wrap;html=1;aspect=fixed;" vertex="1" parent="1">
          <mxGeometry x="230" y="410" width="90" height="90" as="geometry" />
        </mxCell>
        <mxCell id="fFxdtxSOvmqtfOTRgSrr-9" value="EC-1" style="rounded=0;whiteSpace=wrap;html=1;" vertex="1" parent="1">
          <mxGeometry x="140" y="330" width="50" height="20" as="geometry" />
        </mxCell>
        <mxCell id="fFxdtxSOvmqtfOTRgSrr-10" value="EC-2" style="rounded=0;whiteSpace=wrap;html=1;" vertex="1" parent="1">
          <mxGeometry x="140" y="350" width="50" height="20" as="geometry" />
        </mxCell>
        <mxCell id="fFxdtxSOvmqtfOTRgSrr-11" value="" style="endArrow=classic;html=1;rounded=0;exitX=0;exitY=0.5;exitDx=0;exitDy=0;entryX=1;entryY=0.5;entryDx=0;entryDy=0;" edge="1" parent="1" target="fFxdtxSOvmqtfOTRgSrr-10">
          <mxGeometry width="50" height="50" relative="1" as="geometry">
            <mxPoint x="230" y="350" as="sourcePoint" />
            <mxPoint x="190" y="350" as="targetPoint" />
          </mxGeometry>
        </mxCell>
        <mxCell id="fFxdtxSOvmqtfOTRgSrr-12" value="" style="endArrow=classic;html=1;rounded=0;exitX=0;exitY=0.5;exitDx=0;exitDy=0;entryX=1;entryY=0.5;entryDx=0;entryDy=0;" edge="1" parent="1" target="fFxdtxSOvmqtfOTRgSrr-9">
          <mxGeometry width="50" height="50" relative="1" as="geometry">
            <mxPoint x="230" y="350" as="sourcePoint" />
            <mxPoint x="190" y="330" as="targetPoint" />
          </mxGeometry>
        </mxCell>
        <mxCell id="fFxdtxSOvmqtfOTRgSrr-17" value="RP-1" style="rounded=0;whiteSpace=wrap;html=1;" vertex="1" parent="1">
          <mxGeometry x="140" y="445" width="50" height="20" as="geometry" />
        </mxCell>
        <mxCell id="fFxdtxSOvmqtfOTRgSrr-18" value="RP-2" style="rounded=0;whiteSpace=wrap;html=1;" vertex="1" parent="1">
          <mxGeometry x="140" y="465" width="50" height="20" as="geometry" />
        </mxCell>
        <mxCell id="fFxdtxSOvmqtfOTRgSrr-19" value="" style="endArrow=classic;html=1;rounded=0;exitX=0;exitY=0.5;exitDx=0;exitDy=0;entryX=1;entryY=0.5;entryDx=0;entryDy=0;" edge="1" parent="1" target="fFxdtxSOvmqtfOTRgSrr-18">
          <mxGeometry width="50" height="50" relative="1" as="geometry">
            <mxPoint x="230" y="465" as="sourcePoint" />
            <mxPoint x="190" y="465" as="targetPoint" />
          </mxGeometry>
        </mxCell>
        <mxCell id="fFxdtxSOvmqtfOTRgSrr-20" value="" style="endArrow=classic;html=1;rounded=0;exitX=0;exitY=0.5;exitDx=0;exitDy=0;entryX=1;entryY=0.5;entryDx=0;entryDy=0;" edge="1" parent="1" target="fFxdtxSOvmqtfOTRgSrr-17">
          <mxGeometry width="50" height="50" relative="1" as="geometry">
            <mxPoint x="230" y="465" as="sourcePoint" />
            <mxPoint x="190" y="445" as="targetPoint" />
          </mxGeometry>
        </mxCell>
        <mxCell id="fFxdtxSOvmqtfOTRgSrr-22" value="EC-3" style="rounded=0;whiteSpace=wrap;html=1;" vertex="1" parent="1">
          <mxGeometry x="140" y="370" width="50" height="20" as="geometry" />
        </mxCell>
        <mxCell id="fFxdtxSOvmqtfOTRgSrr-23" value="" style="endArrow=classic;html=1;rounded=0;exitX=0;exitY=0.5;exitDx=0;exitDy=0;entryX=1;entryY=0.75;entryDx=0;entryDy=0;" edge="1" parent="1" source="fFxdtxSOvmqtfOTRgSrr-3" target="fFxdtxSOvmqtfOTRgSrr-22">
          <mxGeometry width="50" height="50" relative="1" as="geometry">
            <mxPoint x="240" y="360" as="sourcePoint" />
            <mxPoint x="200" y="370" as="targetPoint" />
          </mxGeometry>
        </mxCell>
        <mxCell id="fFxdtxSOvmqtfOTRgSrr-41" style="edgeStyle=orthogonalEdgeStyle;rounded=0;orthogonalLoop=1;jettySize=auto;html=1;entryX=0;entryY=0.5;entryDx=0;entryDy=0;" edge="1" parent="1" source="fFxdtxSOvmqtfOTRgSrr-32" target="IYlS7my690wejQT6I9Gt-67">
          <mxGeometry relative="1" as="geometry">
            <Array as="points">
              <mxPoint x="625" y="450" />
              <mxPoint x="570" y="450" />
              <mxPoint x="570" y="310" />
            </Array>
          </mxGeometry>
        </mxCell>
        <mxCell id="fFxdtxSOvmqtfOTRgSrr-32" value="Perception of Automobile Market &lt;br&gt;Trends" style="ellipse;whiteSpace=wrap;html=1;aspect=fixed;" vertex="1" parent="1">
          <mxGeometry x="580" y="505" width="90" height="90" as="geometry" />
        </mxCell>
        <mxCell id="fFxdtxSOvmqtfOTRgSrr-37" style="edgeStyle=orthogonalEdgeStyle;rounded=0;orthogonalLoop=1;jettySize=auto;html=1;entryX=0;entryY=0.5;entryDx=0;entryDy=0;" edge="1" parent="1" source="fFxdtxSOvmqtfOTRgSrr-33" target="IYlS7my690wejQT6I9Gt-67">
          <mxGeometry relative="1" as="geometry">
            <mxPoint x="540" y="420" as="targetPoint" />
            <Array as="points">
              <mxPoint x="515" y="450" />
              <mxPoint x="570" y="450" />
              <mxPoint x="570" y="310" />
            </Array>
          </mxGeometry>
        </mxCell>
        <mxCell id="fFxdtxSOvmqtfOTRgSrr-33" value="Perception of ICE Reliability&amp;nbsp;" style="ellipse;whiteSpace=wrap;html=1;aspect=fixed;" vertex="1" parent="1">
          <mxGeometry x="470" y="505" width="90" height="90" as="geometry" />
        </mxCell>
        <mxCell id="fFxdtxSOvmqtfOTRgSrr-38" style="edgeStyle=orthogonalEdgeStyle;rounded=0;orthogonalLoop=1;jettySize=auto;html=1;" edge="1" parent="1" source="fFxdtxSOvmqtfOTRgSrr-34">
          <mxGeometry relative="1" as="geometry">
            <mxPoint x="620" y="310" as="targetPoint" />
            <Array as="points">
              <mxPoint x="395" y="450" />
              <mxPoint x="570" y="450" />
              <mxPoint x="570" y="310" />
            </Array>
          </mxGeometry>
        </mxCell>
        <mxCell id="fFxdtxSOvmqtfOTRgSrr-34" value="Perception of ICE Costs" style="ellipse;whiteSpace=wrap;html=1;aspect=fixed;" vertex="1" parent="1">
          <mxGeometry x="350" y="505" width="90" height="90" as="geometry" />
        </mxCell>
        <mxCell id="fFxdtxSOvmqtfOTRgSrr-46" value="PIC-2" style="rounded=0;whiteSpace=wrap;html=1;" vertex="1" parent="1">
          <mxGeometry x="240" y="540" width="50" height="20" as="geometry" />
        </mxCell>
        <mxCell id="fFxdtxSOvmqtfOTRgSrr-47" value="PIC-1" style="rounded=0;whiteSpace=wrap;html=1;" vertex="1" parent="1">
          <mxGeometry x="240" y="520" width="50" height="20" as="geometry" />
        </mxCell>
        <mxCell id="fFxdtxSOvmqtfOTRgSrr-50" value="" style="endArrow=classic;html=1;rounded=0;exitX=0;exitY=0.5;exitDx=0;exitDy=0;" edge="1" parent="1" source="fFxdtxSOvmqtfOTRgSrr-34">
          <mxGeometry width="50" height="50" relative="1" as="geometry">
            <mxPoint x="250" y="485" as="sourcePoint" />
            <mxPoint x="290" y="550" as="targetPoint" />
            <Array as="points">
              <mxPoint x="300" y="550" />
            </Array>
          </mxGeometry>
        </mxCell>
        <mxCell id="fFxdtxSOvmqtfOTRgSrr-51" value="" style="endArrow=classic;html=1;rounded=0;exitX=0;exitY=0.5;exitDx=0;exitDy=0;" edge="1" parent="1" source="fFxdtxSOvmqtfOTRgSrr-34">
          <mxGeometry width="50" height="50" relative="1" as="geometry">
            <mxPoint x="250" y="485" as="sourcePoint" />
            <mxPoint x="290" y="530" as="targetPoint" />
          </mxGeometry>
        </mxCell>
        <mxCell id="fFxdtxSOvmqtfOTRgSrr-61" value="PIC-3" style="rounded=0;whiteSpace=wrap;html=1;" vertex="1" parent="1">
          <mxGeometry x="240" y="560" width="50" height="20" as="geometry" />
        </mxCell>
        <mxCell id="fFxdtxSOvmqtfOTRgSrr-63" value="" style="endArrow=classic;html=1;rounded=0;entryX=1;entryY=0.5;entryDx=0;entryDy=0;" edge="1" parent="1" target="fFxdtxSOvmqtfOTRgSrr-61">
          <mxGeometry width="50" height="50" relative="1" as="geometry">
            <mxPoint x="350" y="550" as="sourcePoint" />
            <mxPoint x="385" y="650" as="targetPoint" />
          </mxGeometry>
        </mxCell>
        <mxCell id="fFxdtxSOvmqtfOTRgSrr-64" value="PIR-2" style="rounded=0;whiteSpace=wrap;html=1;" vertex="1" parent="1">
          <mxGeometry x="480" y="620" width="50" height="20" as="geometry" />
        </mxCell>
        <mxCell id="fFxdtxSOvmqtfOTRgSrr-65" value="PIR-1" style="rounded=0;whiteSpace=wrap;html=1;" vertex="1" parent="1">
          <mxGeometry x="430" y="620" width="50" height="20" as="geometry" />
        </mxCell>
        <mxCell id="fFxdtxSOvmqtfOTRgSrr-66" value="PIR-3" style="rounded=0;whiteSpace=wrap;html=1;" vertex="1" parent="1">
          <mxGeometry x="530" y="620" width="50" height="20" as="geometry" />
        </mxCell>
        <mxCell id="fFxdtxSOvmqtfOTRgSrr-67" value="" style="endArrow=classic;html=1;rounded=0;exitX=0.5;exitY=1;exitDx=0;exitDy=0;entryX=0.5;entryY=0;entryDx=0;entryDy=0;" edge="1" parent="1" target="fFxdtxSOvmqtfOTRgSrr-66" source="fFxdtxSOvmqtfOTRgSrr-33">
          <mxGeometry width="50" height="50" relative="1" as="geometry">
            <mxPoint x="545" y="595" as="sourcePoint" />
            <mxPoint x="535" y="650" as="targetPoint" />
          </mxGeometry>
        </mxCell>
        <mxCell id="fFxdtxSOvmqtfOTRgSrr-68" value="" style="endArrow=classic;html=1;rounded=0;entryX=0.5;entryY=0;entryDx=0;entryDy=0;exitX=0.5;exitY=1;exitDx=0;exitDy=0;" edge="1" parent="1" source="fFxdtxSOvmqtfOTRgSrr-33" target="fFxdtxSOvmqtfOTRgSrr-64">
          <mxGeometry width="50" height="50" relative="1" as="geometry">
            <mxPoint x="520" y="600" as="sourcePoint" />
            <mxPoint x="585" y="650" as="targetPoint" />
          </mxGeometry>
        </mxCell>
        <mxCell id="fFxdtxSOvmqtfOTRgSrr-69" value="" style="endArrow=classic;html=1;rounded=0;exitX=0.5;exitY=1;exitDx=0;exitDy=0;entryX=0.5;entryY=0;entryDx=0;entryDy=0;" edge="1" parent="1" source="fFxdtxSOvmqtfOTRgSrr-33" target="fFxdtxSOvmqtfOTRgSrr-65">
          <mxGeometry width="50" height="50" relative="1" as="geometry">
            <mxPoint x="420" y="610" as="sourcePoint" />
            <mxPoint x="480" y="655" as="targetPoint" />
          </mxGeometry>
        </mxCell>
        <mxCell id="fFxdtxSOvmqtfOTRgSrr-72" value="PAM-2" style="rounded=0;whiteSpace=wrap;html=1;" vertex="1" parent="1">
          <mxGeometry x="700" y="560" width="50" height="20" as="geometry" />
        </mxCell>
        <mxCell id="fFxdtxSOvmqtfOTRgSrr-73" value="PAM-1" style="rounded=0;whiteSpace=wrap;html=1;" vertex="1" parent="1">
          <mxGeometry x="700" y="535" width="50" height="25" as="geometry" />
        </mxCell>
        <mxCell id="fFxdtxSOvmqtfOTRgSrr-76" value="" style="endArrow=classic;html=1;rounded=0;entryX=0;entryY=0.25;entryDx=0;entryDy=0;" edge="1" parent="1" target="fFxdtxSOvmqtfOTRgSrr-72">
          <mxGeometry width="50" height="50" relative="1" as="geometry">
            <mxPoint x="670" y="550" as="sourcePoint" />
            <mxPoint x="765" y="640" as="targetPoint" />
          </mxGeometry>
        </mxCell>
        <mxCell id="fFxdtxSOvmqtfOTRgSrr-77" value="" style="endArrow=classic;html=1;rounded=0;exitX=1;exitY=0.5;exitDx=0;exitDy=0;entryX=0;entryY=0.5;entryDx=0;entryDy=0;" edge="1" parent="1" target="fFxdtxSOvmqtfOTRgSrr-73" source="fFxdtxSOvmqtfOTRgSrr-32">
          <mxGeometry width="50" height="50" relative="1" as="geometry">
            <mxPoint x="695" y="585" as="sourcePoint" />
            <mxPoint x="720" y="518" as="targetPoint" />
          </mxGeometry>
        </mxCell>
      </root>
    </mxGraphModel>
  </diagram>
</mxfile>
